<svg xmlns="http://www.w3.org/2000/svg" xmlns:xlink="http://www.w3.org/1999/xlink" viewBox="0,0,255.99057,255.99057" width="26px" height="26px"><g fill-opacity="0" fill="#dddddd" fill-rule="nonzero" stroke="none" stroke-width="1" stroke-linecap="butt" stroke-linejoin="miter" stroke-miterlimit="10" stroke-dasharray="" stroke-dashoffset="0" font-family="none" font-weight="none" font-size="none" text-anchor="none" style="mix-blend-mode: normal"><path d="M0,255.99057v-255.99057h255.99057v255.99057z" id="bgRectangle"></path></g><g fill="#000000" fill-rule="nonzero" stroke="none" stroke-width="1" stroke-linecap="butt" stroke-linejoin="miter" stroke-miterlimit="10" stroke-dasharray="" stroke-dashoffset="0" font-family="none" font-weight="none" font-size="none" text-anchor="none" style="mix-blend-mode: normal"><g transform="scale(9.84615,9.84615)"><path d="M13,0c-7.19922,0 -13,5.80078 -13,13c0,7.19922 5.80078,13 13,13c7.19922,0 13,-5.80078 13,-13c0,-7.19922 -5.80078,-13 -13,-13zM18.30078,19.10156c-0.19922,0 -0.40234,-0.10156 -0.60156,-0.20312c-1.89844,-1.09766 -4.19922,-1.69922 -6.69922,-1.69922c-1.39844,0 -2.80078,0.19922 -4.10156,0.5c-0.19922,0 -0.5,0.10156 -0.59766,0.10156c-0.5,0 -0.80078,-0.40234 -0.80078,-0.80078c0,-0.5 0.30078,-0.80078 0.69922,-0.89844c1.60156,-0.40234 3.19922,-0.60156 4.90234,-0.60156c2.79688,0 5.39844,0.69922 7.59766,2c0.30078,0.19922 0.5,0.39844 0.5,0.89844c-0.09766,0.40234 -0.5,0.70313 -0.89844,0.70313zM19.69922,15.69922c-0.30078,0 -0.5,-0.09766 -0.69922,-0.19922c-2.10156,-1.30078 -5,-2.10156 -8.30078,-2.10156c-1.59766,0 -3.09766,0.20313 -4.19922,0.5c-0.30078,0.10156 -0.39844,0.10156 -0.60156,0.10156c-0.59766,0 -1,-0.5 -1,-1c0,-0.60156 0.30078,-0.89844 0.80078,-1.10156c1.5,-0.39844 3,-0.69922 5.10156,-0.69922c3.39844,0 6.69922,0.80078 9.30078,2.40234c0.39844,0.19922 0.59766,0.59766 0.59766,1c0,0.59766 -0.39844,1.09766 -1,1.09766zM21.30078,11.69922c-0.30078,0 -0.40234,-0.09766 -0.69922,-0.19922c-2.40234,-1.39844 -6,-2.19922 -9.5,-2.19922c-1.80078,0 -3.60156,0.19922 -5.20313,0.59766c-0.19922,0 -0.39844,0.10156 -0.69922,0.10156c-0.69922,0.10156 -1.19922,-0.5 -1.19922,-1.19922c0,-0.69922 0.39844,-1.10156 0.89844,-1.19922c1.90234,-0.60156 3.90234,-0.80078 6.20313,-0.80078c3.79688,0 7.79687,0.80078 10.79687,2.5c0.40234,0.19922 0.70313,0.59766 0.70313,1.19922c-0.10156,0.69922 -0.60156,1.19922 -1.30078,1.19922z"></path></g></g></svg>